#N canvas 685 37 679 692 12;
#N canvas -8 -8 1366 685 peaks 0;
#N canvas -8 -8 1366 685 peak 0;
#X obj 112 70 unpack 0 0 0 0, f 18;
#X obj 54 231 osc~;
#X obj 54 255 *~, f 7;
#X obj 54 207 line~;
#X obj 112 41 route 0;
#X obj 112 12 inlet;
#X obj 44 517 outlet~;
#X obj 158 12 inlet;
#X obj 54 130 f;
#X obj 135 164 f;
#X obj 12 51 r \$0-pull;
#X obj 135 236 line~;
#X obj 54 284 *~;
#X obj 300 169 tabread \$0-gains;
#X obj 300 145 f;
#X obj 12 80 t b b;
#X obj 135 188 pack f f;
#X msg 135 212 \$1 \$2;
#X obj 54 154 pack f f;
#X msg 54 183 \$1 \$2;
#X obj 188 164 r \$0-lerp-gain;
#X obj 107 130 r \$0-lerp-pitch;
#X obj 300 193 pack f f;
#X msg 300 217 \$1 \$2;
#X obj 54 308 delwrite~ \$0-del0 5000;
#X obj 300 241 line~;
#X obj 300 265 clip~ 0 1;
#X obj 44 339 f;
#X obj 44 363 tabread \$0-delay-tab;
#X obj 44 387 clip 0 1;
#X obj 44 421 *;
#X obj 109 387 r \$0-delay-max;
#X obj 252 51 r \$0-transp;
#X obj 112 99 expr pow(2 \, ($f2/12))*$f1;
#X obj 252 75 t b f;
#X obj 44 493 delread4~ \$0-del0;
#X obj 44 469 line~;
#X obj 44 445 pack f f;
#X obj 97 421 r \$0-lerp-delay;
#X connect 0 0 33 0;
#X connect 0 1 9 1;
#X connect 1 0 2 0;
#X connect 2 0 12 0;
#X connect 3 0 1 0;
#X connect 4 0 0 0;
#X connect 5 0 4 0;
#X connect 7 0 4 1;
#X connect 7 0 14 1;
#X connect 7 0 27 1;
#X connect 8 0 18 0;
#X connect 9 0 16 0;
#X connect 10 0 15 0;
#X connect 11 0 2 1;
#X connect 12 0 24 0;
#X connect 13 0 22 0;
#X connect 14 0 13 0;
#X connect 15 0 9 0;
#X connect 15 1 14 0;
#X connect 15 1 8 0;
#X connect 15 1 27 0;
#X connect 16 0 17 0;
#X connect 17 0 11 0;
#X connect 18 0 19 0;
#X connect 19 0 3 0;
#X connect 20 0 16 1;
#X connect 20 0 22 1;
#X connect 21 0 18 1;
#X connect 22 0 23 0;
#X connect 23 0 25 0;
#X connect 25 0 26 0;
#X connect 26 0 12 1;
#X connect 27 0 28 0;
#X connect 28 0 29 0;
#X connect 29 0 30 1;
#X connect 30 0 37 0;
#X connect 31 0 30 0;
#X connect 32 0 34 0;
#X connect 33 0 8 1;
#X connect 34 0 33 0;
#X connect 34 1 33 1;
#X connect 35 0 6 0;
#X connect 36 0 35 0;
#X connect 37 0 36 0;
#X connect 38 0 37 1;
#X restore 70 113 pd peak;
#X msg 116 84 0;
#X obj 70 34 inlet;
#X obj 507 348 outlet~;
#N canvas -8 -8 1366 685 peak 0;
#X obj 112 70 unpack 0 0 0 0, f 18;
#X obj 54 231 osc~;
#X obj 54 255 *~, f 7;
#X obj 54 207 line~;
#X obj 112 41 route 0;
#X obj 112 12 inlet;
#X obj 44 517 outlet~;
#X obj 158 12 inlet;
#X obj 54 130 f;
#X obj 135 164 f;
#X obj 12 51 r \$0-pull;
#X obj 135 236 line~;
#X obj 54 284 *~;
#X obj 300 169 tabread \$0-gains;
#X obj 300 145 f;
#X obj 12 80 t b b;
#X obj 135 188 pack f f;
#X msg 135 212 \$1 \$2;
#X obj 54 154 pack f f;
#X msg 54 183 \$1 \$2;
#X obj 188 164 r \$0-lerp-gain;
#X obj 107 130 r \$0-lerp-pitch;
#X obj 300 193 pack f f;
#X msg 300 217 \$1 \$2;
#X obj 300 241 line~;
#X obj 300 265 clip~ 0 1;
#X obj 44 339 f;
#X obj 44 363 tabread \$0-delay-tab;
#X obj 44 387 clip 0 1;
#X obj 44 421 *;
#X obj 109 387 r \$0-delay-max;
#X obj 54 308 delwrite~ \$0-del1 5000;
#X obj 252 51 r \$0-transp;
#X obj 112 99 expr pow(2 \, ($f2/12))*$f1;
#X obj 252 75 t b f;
#X obj 44 493 delread4~ \$0-del1;
#X obj 44 469 line~;
#X obj 44 445 pack f f;
#X obj 97 421 r \$0-lerp-delay;
#X connect 0 0 33 0;
#X connect 0 1 9 1;
#X connect 1 0 2 0;
#X connect 2 0 12 0;
#X connect 3 0 1 0;
#X connect 4 0 0 0;
#X connect 5 0 4 0;
#X connect 7 0 4 1;
#X connect 7 0 14 1;
#X connect 7 0 26 1;
#X connect 8 0 18 0;
#X connect 9 0 16 0;
#X connect 10 0 15 0;
#X connect 11 0 2 1;
#X connect 12 0 31 0;
#X connect 13 0 22 0;
#X connect 14 0 13 0;
#X connect 15 0 9 0;
#X connect 15 1 14 0;
#X connect 15 1 8 0;
#X connect 15 1 26 0;
#X connect 16 0 17 0;
#X connect 17 0 11 0;
#X connect 18 0 19 0;
#X connect 19 0 3 0;
#X connect 20 0 16 1;
#X connect 20 0 22 1;
#X connect 21 0 18 1;
#X connect 22 0 23 0;
#X connect 23 0 24 0;
#X connect 24 0 25 0;
#X connect 25 0 12 1;
#X connect 26 0 27 0;
#X connect 27 0 28 0;
#X connect 28 0 29 1;
#X connect 29 0 37 0;
#X connect 30 0 29 0;
#X connect 32 0 34 0;
#X connect 33 0 8 1;
#X connect 34 0 33 0;
#X connect 34 1 33 1;
#X connect 35 0 6 0;
#X connect 36 0 35 0;
#X connect 37 0 36 0;
#X connect 38 0 37 1;
#X restore 133 113 pd peak;
#X msg 179 84 1;
#N canvas -8 -8 1366 685 peak 0;
#X obj 112 70 unpack 0 0 0 0, f 18;
#X obj 54 231 osc~;
#X obj 54 255 *~, f 7;
#X obj 54 207 line~;
#X obj 112 41 route 0;
#X obj 112 12 inlet;
#X obj 44 517 outlet~;
#X obj 158 12 inlet;
#X obj 54 130 f;
#X obj 135 164 f;
#X obj 12 51 r \$0-pull;
#X obj 135 236 line~;
#X obj 54 284 *~;
#X obj 300 169 tabread \$0-gains;
#X obj 300 145 f;
#X obj 12 80 t b b;
#X obj 135 188 pack f f;
#X msg 135 212 \$1 \$2;
#X obj 54 154 pack f f;
#X msg 54 183 \$1 \$2;
#X obj 188 164 r \$0-lerp-gain;
#X obj 107 130 r \$0-lerp-pitch;
#X obj 300 193 pack f f;
#X msg 300 217 \$1 \$2;
#X obj 300 241 line~;
#X obj 300 265 clip~ 0 1;
#X obj 44 339 f;
#X obj 44 363 tabread \$0-delay-tab;
#X obj 44 387 clip 0 1;
#X obj 44 421 *;
#X obj 109 387 r \$0-delay-max;
#X obj 54 308 delwrite~ \$0-del2 5000;
#X obj 252 51 r \$0-transp;
#X obj 112 99 expr pow(2 \, ($f2/12))*$f1;
#X obj 252 75 t b f;
#X obj 44 493 delread4~ \$0-del2;
#X obj 44 469 line~;
#X obj 44 445 pack f f;
#X obj 97 421 r \$0-lerp-delay;
#X connect 0 0 33 0;
#X connect 0 1 9 1;
#X connect 1 0 2 0;
#X connect 2 0 12 0;
#X connect 3 0 1 0;
#X connect 4 0 0 0;
#X connect 5 0 4 0;
#X connect 7 0 4 1;
#X connect 7 0 14 1;
#X connect 7 0 26 1;
#X connect 8 0 18 0;
#X connect 9 0 16 0;
#X connect 10 0 15 0;
#X connect 11 0 2 1;
#X connect 12 0 31 0;
#X connect 13 0 22 0;
#X connect 14 0 13 0;
#X connect 15 0 9 0;
#X connect 15 1 14 0;
#X connect 15 1 8 0;
#X connect 15 1 26 0;
#X connect 16 0 17 0;
#X connect 17 0 11 0;
#X connect 18 0 19 0;
#X connect 19 0 3 0;
#X connect 20 0 16 1;
#X connect 20 0 22 1;
#X connect 21 0 18 1;
#X connect 22 0 23 0;
#X connect 23 0 24 0;
#X connect 24 0 25 0;
#X connect 25 0 12 1;
#X connect 26 0 27 0;
#X connect 27 0 28 0;
#X connect 28 0 29 1;
#X connect 29 0 37 0;
#X connect 30 0 29 0;
#X connect 32 0 34 0;
#X connect 33 0 8 1;
#X connect 34 0 33 0;
#X connect 34 1 33 1;
#X connect 35 0 6 0;
#X connect 36 0 35 0;
#X connect 37 0 36 0;
#X connect 38 0 37 1;
#X restore 196 113 pd peak;
#N canvas -8 -8 1366 685 peak 0;
#X obj 112 70 unpack 0 0 0 0, f 18;
#X obj 54 231 osc~;
#X obj 54 255 *~, f 7;
#X obj 54 207 line~;
#X obj 112 41 route 0;
#X obj 112 12 inlet;
#X obj 44 517 outlet~;
#X obj 158 12 inlet;
#X obj 54 130 f;
#X obj 135 164 f;
#X obj 12 51 r \$0-pull;
#X obj 135 236 line~;
#X obj 54 284 *~;
#X obj 300 169 tabread \$0-gains;
#X obj 300 145 f;
#X obj 12 80 t b b;
#X obj 135 188 pack f f;
#X msg 135 212 \$1 \$2;
#X obj 54 154 pack f f;
#X msg 54 183 \$1 \$2;
#X obj 188 164 r \$0-lerp-gain;
#X obj 107 130 r \$0-lerp-pitch;
#X obj 300 193 pack f f;
#X msg 300 217 \$1 \$2;
#X obj 300 241 line~;
#X obj 300 265 clip~ 0 1;
#X obj 44 339 f;
#X obj 44 363 tabread \$0-delay-tab;
#X obj 44 387 clip 0 1;
#X obj 44 421 *;
#X obj 109 387 r \$0-delay-max;
#X obj 54 308 delwrite~ \$0-del3 5000;
#X obj 252 51 r \$0-transp;
#X obj 112 99 expr pow(2 \, ($f2/12))*$f1;
#X obj 252 75 t b f;
#X obj 44 493 delread4~ \$0-del3;
#X obj 44 469 line~;
#X obj 44 445 pack f f;
#X obj 97 421 r \$0-lerp-delay;
#X connect 0 0 33 0;
#X connect 0 1 9 1;
#X connect 1 0 2 0;
#X connect 2 0 12 0;
#X connect 3 0 1 0;
#X connect 4 0 0 0;
#X connect 5 0 4 0;
#X connect 7 0 4 1;
#X connect 7 0 14 1;
#X connect 7 0 26 1;
#X connect 8 0 18 0;
#X connect 9 0 16 0;
#X connect 10 0 15 0;
#X connect 11 0 2 1;
#X connect 12 0 31 0;
#X connect 13 0 22 0;
#X connect 14 0 13 0;
#X connect 15 0 9 0;
#X connect 15 1 14 0;
#X connect 15 1 8 0;
#X connect 15 1 26 0;
#X connect 16 0 17 0;
#X connect 17 0 11 0;
#X connect 18 0 19 0;
#X connect 19 0 3 0;
#X connect 20 0 16 1;
#X connect 20 0 22 1;
#X connect 21 0 18 1;
#X connect 22 0 23 0;
#X connect 23 0 24 0;
#X connect 24 0 25 0;
#X connect 25 0 12 1;
#X connect 26 0 27 0;
#X connect 27 0 28 0;
#X connect 28 0 29 1;
#X connect 29 0 37 0;
#X connect 30 0 29 0;
#X connect 32 0 34 0;
#X connect 33 0 8 1;
#X connect 34 0 33 0;
#X connect 34 1 33 1;
#X connect 35 0 6 0;
#X connect 36 0 35 0;
#X connect 37 0 36 0;
#X connect 38 0 37 1;
#X restore 259 113 pd peak;
#X msg 242 84 2;
#X msg 305 84 3;
#N canvas -8 -8 1366 685 peak 0;
#X obj 112 70 unpack 0 0 0 0, f 18;
#X obj 54 231 osc~;
#X obj 54 255 *~, f 7;
#X obj 54 207 line~;
#X obj 112 41 route 0;
#X obj 112 12 inlet;
#X obj 44 517 outlet~;
#X obj 158 12 inlet;
#X obj 54 130 f;
#X obj 135 164 f;
#X obj 12 51 r \$0-pull;
#X obj 135 236 line~;
#X obj 54 284 *~;
#X obj 300 169 tabread \$0-gains;
#X obj 300 145 f;
#X obj 12 80 t b b;
#X obj 135 188 pack f f;
#X msg 135 212 \$1 \$2;
#X obj 54 154 pack f f;
#X msg 54 183 \$1 \$2;
#X obj 188 164 r \$0-lerp-gain;
#X obj 107 130 r \$0-lerp-pitch;
#X obj 300 193 pack f f;
#X msg 300 217 \$1 \$2;
#X obj 300 241 line~;
#X obj 300 265 clip~ 0 1;
#X obj 44 339 f;
#X obj 44 363 tabread \$0-delay-tab;
#X obj 44 387 clip 0 1;
#X obj 44 421 *;
#X obj 109 387 r \$0-delay-max;
#X obj 54 308 delwrite~ \$0-del4 5000;
#X obj 252 51 r \$0-transp;
#X obj 112 99 expr pow(2 \, ($f2/12))*$f1;
#X obj 252 75 t b f;
#X obj 44 493 delread4~ \$0-del4;
#X obj 44 469 line~;
#X obj 44 445 pack f f;
#X obj 97 421 r \$0-lerp-delay;
#X connect 0 0 33 0;
#X connect 0 1 9 1;
#X connect 1 0 2 0;
#X connect 2 0 12 0;
#X connect 3 0 1 0;
#X connect 4 0 0 0;
#X connect 5 0 4 0;
#X connect 7 0 4 1;
#X connect 7 0 14 1;
#X connect 7 0 26 1;
#X connect 8 0 18 0;
#X connect 9 0 16 0;
#X connect 10 0 15 0;
#X connect 11 0 2 1;
#X connect 12 0 31 0;
#X connect 13 0 22 0;
#X connect 14 0 13 0;
#X connect 15 0 9 0;
#X connect 15 1 14 0;
#X connect 15 1 8 0;
#X connect 15 1 26 0;
#X connect 16 0 17 0;
#X connect 17 0 11 0;
#X connect 18 0 19 0;
#X connect 19 0 3 0;
#X connect 20 0 16 1;
#X connect 20 0 22 1;
#X connect 21 0 18 1;
#X connect 22 0 23 0;
#X connect 23 0 24 0;
#X connect 24 0 25 0;
#X connect 25 0 12 1;
#X connect 26 0 27 0;
#X connect 27 0 28 0;
#X connect 28 0 29 1;
#X connect 29 0 37 0;
#X connect 30 0 29 0;
#X connect 32 0 34 0;
#X connect 33 0 8 1;
#X connect 34 0 33 0;
#X connect 34 1 33 1;
#X connect 35 0 6 0;
#X connect 36 0 35 0;
#X connect 37 0 36 0;
#X connect 38 0 37 1;
#X restore 322 113 pd peak;
#N canvas -8 -8 1366 685 peak 0;
#X obj 112 70 unpack 0 0 0 0, f 18;
#X obj 54 231 osc~;
#X obj 54 255 *~, f 7;
#X obj 54 207 line~;
#X obj 112 41 route 0;
#X obj 112 12 inlet;
#X obj 44 517 outlet~;
#X obj 158 12 inlet;
#X obj 54 130 f;
#X obj 135 164 f;
#X obj 12 51 r \$0-pull;
#X obj 135 236 line~;
#X obj 54 284 *~;
#X obj 300 169 tabread \$0-gains;
#X obj 300 145 f;
#X obj 12 80 t b b;
#X obj 135 188 pack f f;
#X msg 135 212 \$1 \$2;
#X obj 54 154 pack f f;
#X msg 54 183 \$1 \$2;
#X obj 188 164 r \$0-lerp-gain;
#X obj 107 130 r \$0-lerp-pitch;
#X obj 300 193 pack f f;
#X msg 300 217 \$1 \$2;
#X obj 300 241 line~;
#X obj 300 265 clip~ 0 1;
#X obj 44 339 f;
#X obj 44 363 tabread \$0-delay-tab;
#X obj 44 387 clip 0 1;
#X obj 44 421 *;
#X obj 109 392 r \$0-delay-max;
#X obj 54 308 delwrite~ \$0-del5 5000;
#X obj 252 51 r \$0-transp;
#X obj 112 99 expr pow(2 \, ($f2/12))*$f1;
#X obj 252 75 t b f;
#X obj 44 493 delread4~ \$0-del5;
#X obj 44 469 line~;
#X obj 44 445 pack f f;
#X obj 97 421 r \$0-lerp-delay;
#X connect 0 0 33 0;
#X connect 0 1 9 1;
#X connect 1 0 2 0;
#X connect 2 0 12 0;
#X connect 3 0 1 0;
#X connect 4 0 0 0;
#X connect 5 0 4 0;
#X connect 7 0 4 1;
#X connect 7 0 14 1;
#X connect 7 0 26 1;
#X connect 8 0 18 0;
#X connect 9 0 16 0;
#X connect 10 0 15 0;
#X connect 11 0 2 1;
#X connect 12 0 31 0;
#X connect 13 0 22 0;
#X connect 14 0 13 0;
#X connect 15 0 9 0;
#X connect 15 1 14 0;
#X connect 15 1 8 0;
#X connect 15 1 26 0;
#X connect 16 0 17 0;
#X connect 17 0 11 0;
#X connect 18 0 19 0;
#X connect 19 0 3 0;
#X connect 20 0 16 1;
#X connect 20 0 22 1;
#X connect 21 0 18 1;
#X connect 22 0 23 0;
#X connect 23 0 24 0;
#X connect 24 0 25 0;
#X connect 25 0 12 1;
#X connect 26 0 27 0;
#X connect 27 0 28 0;
#X connect 28 0 29 1;
#X connect 29 0 37 0;
#X connect 30 0 29 0;
#X connect 32 0 34 0;
#X connect 33 0 8 1;
#X connect 34 0 33 0;
#X connect 34 1 33 1;
#X connect 35 0 6 0;
#X connect 36 0 35 0;
#X connect 37 0 36 0;
#X connect 38 0 37 1;
#X restore 385 113 pd peak;
#N canvas -8 -8 1366 685 peak 0;
#X obj 112 70 unpack 0 0 0 0, f 18;
#X obj 54 231 osc~;
#X obj 54 255 *~, f 7;
#X obj 54 207 line~;
#X obj 112 41 route 0;
#X obj 112 12 inlet;
#X obj 44 517 outlet~;
#X obj 158 12 inlet;
#X obj 54 130 f;
#X obj 135 164 f;
#X obj 12 51 r \$0-pull;
#X obj 135 236 line~;
#X obj 54 284 *~;
#X obj 300 169 tabread \$0-gains;
#X obj 300 145 f;
#X obj 12 80 t b b;
#X obj 135 188 pack f f;
#X msg 135 212 \$1 \$2;
#X obj 54 154 pack f f;
#X msg 54 183 \$1 \$2;
#X obj 188 164 r \$0-lerp-gain;
#X obj 107 130 r \$0-lerp-pitch;
#X obj 300 193 pack f f;
#X msg 300 217 \$1 \$2;
#X obj 300 241 line~;
#X obj 300 265 clip~ 0 1;
#X obj 44 339 f;
#X obj 44 363 tabread \$0-delay-tab;
#X obj 44 387 clip 0 1;
#X obj 44 421 *;
#X obj 109 387 r \$0-delay-max;
#X obj 54 308 delwrite~ \$0-del6 5000;
#X obj 252 51 r \$0-transp;
#X obj 112 99 expr pow(2 \, ($f2/12))*$f1;
#X obj 252 75 t b f;
#X obj 44 493 delread4~ \$0-del6;
#X obj 44 469 line~;
#X obj 44 445 pack f f;
#X obj 97 421 r \$0-lerp-delay;
#X connect 0 0 33 0;
#X connect 0 1 9 1;
#X connect 1 0 2 0;
#X connect 2 0 12 0;
#X connect 3 0 1 0;
#X connect 4 0 0 0;
#X connect 5 0 4 0;
#X connect 7 0 4 1;
#X connect 7 0 14 1;
#X connect 7 0 26 1;
#X connect 8 0 18 0;
#X connect 9 0 16 0;
#X connect 10 0 15 0;
#X connect 11 0 2 1;
#X connect 12 0 31 0;
#X connect 13 0 22 0;
#X connect 14 0 13 0;
#X connect 15 0 9 0;
#X connect 15 1 14 0;
#X connect 15 1 8 0;
#X connect 15 1 26 0;
#X connect 16 0 17 0;
#X connect 17 0 11 0;
#X connect 18 0 19 0;
#X connect 19 0 3 0;
#X connect 20 0 16 1;
#X connect 20 0 22 1;
#X connect 21 0 18 1;
#X connect 22 0 23 0;
#X connect 23 0 24 0;
#X connect 24 0 25 0;
#X connect 25 0 12 1;
#X connect 26 0 27 0;
#X connect 27 0 28 0;
#X connect 28 0 29 1;
#X connect 29 0 37 0;
#X connect 30 0 29 0;
#X connect 32 0 34 0;
#X connect 33 0 8 1;
#X connect 34 0 33 0;
#X connect 34 1 33 1;
#X connect 35 0 6 0;
#X connect 36 0 35 0;
#X connect 37 0 36 0;
#X connect 38 0 37 1;
#X restore 448 113 pd peak;
#N canvas -8 -8 1366 685 peak 0;
#X obj 112 70 unpack 0 0 0 0, f 18;
#X obj 54 231 osc~;
#X obj 54 255 *~, f 7;
#X obj 54 207 line~;
#X obj 112 41 route 0;
#X obj 112 12 inlet;
#X obj 44 517 outlet~;
#X obj 158 12 inlet;
#X obj 54 130 f;
#X obj 135 164 f;
#X obj 12 51 r \$0-pull;
#X obj 135 236 line~;
#X obj 54 284 *~;
#X obj 300 169 tabread \$0-gains;
#X obj 300 145 f;
#X obj 12 80 t b b;
#X obj 135 188 pack f f;
#X msg 135 212 \$1 \$2;
#X obj 54 154 pack f f;
#X msg 54 183 \$1 \$2;
#X obj 188 164 r \$0-lerp-gain;
#X obj 107 130 r \$0-lerp-pitch;
#X obj 300 193 pack f f;
#X msg 300 217 \$1 \$2;
#X obj 300 241 line~;
#X obj 300 265 clip~ 0 1;
#X obj 44 339 f;
#X obj 44 363 tabread \$0-delay-tab;
#X obj 44 387 clip 0 1;
#X obj 44 421 *;
#X obj 109 387 r \$0-delay-max;
#X obj 54 308 delwrite~ \$0-del7 5000;
#X obj 252 51 r \$0-transp;
#X obj 112 99 expr pow(2 \, ($f2/12))*$f1;
#X obj 252 75 t b f;
#X obj 44 493 delread4~ \$0-del7;
#X obj 44 469 line~;
#X obj 44 445 pack f f;
#X obj 97 421 r \$0-lerp-delay;
#X connect 0 0 33 0;
#X connect 0 1 9 1;
#X connect 1 0 2 0;
#X connect 2 0 12 0;
#X connect 3 0 1 0;
#X connect 4 0 0 0;
#X connect 5 0 4 0;
#X connect 7 0 4 1;
#X connect 7 0 14 1;
#X connect 7 0 26 1;
#X connect 8 0 18 0;
#X connect 9 0 16 0;
#X connect 10 0 15 0;
#X connect 11 0 2 1;
#X connect 12 0 31 0;
#X connect 13 0 22 0;
#X connect 14 0 13 0;
#X connect 15 0 9 0;
#X connect 15 1 14 0;
#X connect 15 1 8 0;
#X connect 15 1 26 0;
#X connect 16 0 17 0;
#X connect 17 0 11 0;
#X connect 18 0 19 0;
#X connect 19 0 3 0;
#X connect 20 0 16 1;
#X connect 20 0 22 1;
#X connect 21 0 18 1;
#X connect 22 0 23 0;
#X connect 23 0 24 0;
#X connect 24 0 25 0;
#X connect 25 0 12 1;
#X connect 26 0 27 0;
#X connect 27 0 28 0;
#X connect 28 0 29 1;
#X connect 29 0 37 0;
#X connect 30 0 29 0;
#X connect 32 0 34 0;
#X connect 33 0 8 1;
#X connect 34 0 33 0;
#X connect 34 1 33 1;
#X connect 35 0 6 0;
#X connect 36 0 35 0;
#X connect 37 0 36 0;
#X connect 38 0 37 1;
#X restore 511 113 pd peak;
#X msg 368 84 4;
#X msg 431 84 5;
#X msg 494 84 6;
#X msg 557 84 7;
#N canvas -8 -8 1366 685 peak 0;
#X obj 112 70 unpack 0 0 0 0, f 18;
#X obj 54 231 osc~;
#X obj 54 255 *~, f 7;
#X obj 54 207 line~;
#X obj 112 41 route 0;
#X obj 112 12 inlet;
#X obj 44 517 outlet~;
#X obj 158 12 inlet;
#X obj 54 130 f;
#X obj 135 164 f;
#X obj 12 51 r \$0-pull;
#X obj 135 236 line~;
#X obj 54 284 *~;
#X obj 300 169 tabread \$0-gains;
#X obj 300 145 f;
#X obj 12 80 t b b;
#X obj 135 188 pack f f;
#X msg 135 212 \$1 \$2;
#X obj 54 154 pack f f;
#X msg 54 183 \$1 \$2;
#X obj 188 164 r \$0-lerp-gain;
#X obj 107 130 r \$0-lerp-pitch;
#X obj 300 193 pack f f;
#X msg 300 217 \$1 \$2;
#X obj 300 241 line~;
#X obj 300 265 clip~ 0 1;
#X obj 44 339 f;
#X obj 44 363 tabread \$0-delay-tab;
#X obj 44 387 clip 0 1;
#X obj 44 421 *;
#X obj 109 387 r \$0-delay-max;
#X obj 54 308 delwrite~ \$0-del8 5000;
#X obj 252 51 r \$0-transp;
#X obj 112 99 expr pow(2 \, ($f2/12))*$f1;
#X obj 252 75 t b f;
#X obj 44 493 delread4~ \$0-del8;
#X obj 44 469 line~;
#X obj 44 445 pack f f;
#X obj 97 421 r \$0-lerp-delay;
#X connect 0 0 33 0;
#X connect 0 1 9 1;
#X connect 1 0 2 0;
#X connect 2 0 12 0;
#X connect 3 0 1 0;
#X connect 4 0 0 0;
#X connect 5 0 4 0;
#X connect 7 0 4 1;
#X connect 7 0 14 1;
#X connect 7 0 26 1;
#X connect 8 0 18 0;
#X connect 9 0 16 0;
#X connect 10 0 15 0;
#X connect 11 0 2 1;
#X connect 12 0 31 0;
#X connect 13 0 22 0;
#X connect 14 0 13 0;
#X connect 15 0 9 0;
#X connect 15 1 14 0;
#X connect 15 1 8 0;
#X connect 15 1 26 0;
#X connect 16 0 17 0;
#X connect 17 0 11 0;
#X connect 18 0 19 0;
#X connect 19 0 3 0;
#X connect 20 0 16 1;
#X connect 20 0 22 1;
#X connect 21 0 18 1;
#X connect 22 0 23 0;
#X connect 23 0 24 0;
#X connect 24 0 25 0;
#X connect 25 0 12 1;
#X connect 26 0 27 0;
#X connect 27 0 28 0;
#X connect 28 0 29 1;
#X connect 29 0 37 0;
#X connect 30 0 29 0;
#X connect 32 0 34 0;
#X connect 33 0 8 1;
#X connect 34 0 33 0;
#X connect 34 1 33 1;
#X connect 35 0 6 0;
#X connect 36 0 35 0;
#X connect 37 0 36 0;
#X connect 38 0 37 1;
#X restore 574 113 pd peak;
#N canvas -8 -8 1366 685 peak 0;
#X obj 112 70 unpack 0 0 0 0, f 18;
#X obj 54 231 osc~;
#X obj 54 255 *~, f 7;
#X obj 54 207 line~;
#X obj 112 41 route 0;
#X obj 112 12 inlet;
#X obj 44 517 outlet~;
#X obj 158 12 inlet;
#X obj 54 130 f;
#X obj 135 164 f;
#X obj 12 51 r \$0-pull;
#X obj 135 236 line~;
#X obj 54 284 *~;
#X obj 300 169 tabread \$0-gains;
#X obj 300 145 f;
#X obj 12 80 t b b;
#X obj 135 188 pack f f;
#X msg 135 212 \$1 \$2;
#X obj 54 154 pack f f;
#X msg 54 183 \$1 \$2;
#X obj 188 164 r \$0-lerp-gain;
#X obj 107 130 r \$0-lerp-pitch;
#X obj 300 193 pack f f;
#X msg 300 217 \$1 \$2;
#X obj 300 241 line~;
#X obj 300 265 clip~ 0 1;
#X obj 44 339 f;
#X obj 44 363 tabread \$0-delay-tab;
#X obj 44 387 clip 0 1;
#X obj 44 421 *;
#X obj 109 387 r \$0-delay-max;
#X obj 252 51 r \$0-transp;
#X obj 112 99 expr pow(2 \, ($f2/12))*$f1;
#X obj 252 75 t b f;
#X obj 54 308 delwrite~ \$0-del9 5000;
#X obj 44 493 delread4~ \$0-del9;
#X obj 44 469 line~;
#X obj 44 445 pack f f;
#X obj 97 421 r \$0-lerp-delay;
#X connect 0 0 32 0;
#X connect 0 1 9 1;
#X connect 1 0 2 0;
#X connect 2 0 12 0;
#X connect 3 0 1 0;
#X connect 4 0 0 0;
#X connect 5 0 4 0;
#X connect 7 0 4 1;
#X connect 7 0 14 1;
#X connect 7 0 26 1;
#X connect 8 0 18 0;
#X connect 9 0 16 0;
#X connect 10 0 15 0;
#X connect 11 0 2 1;
#X connect 12 0 34 0;
#X connect 13 0 22 0;
#X connect 14 0 13 0;
#X connect 15 0 9 0;
#X connect 15 1 14 0;
#X connect 15 1 8 0;
#X connect 15 1 26 0;
#X connect 16 0 17 0;
#X connect 17 0 11 0;
#X connect 18 0 19 0;
#X connect 19 0 3 0;
#X connect 20 0 16 1;
#X connect 20 0 22 1;
#X connect 21 0 18 1;
#X connect 22 0 23 0;
#X connect 23 0 24 0;
#X connect 24 0 25 0;
#X connect 25 0 12 1;
#X connect 26 0 27 0;
#X connect 27 0 28 0;
#X connect 28 0 29 1;
#X connect 29 0 37 0;
#X connect 30 0 29 0;
#X connect 31 0 33 0;
#X connect 32 0 8 1;
#X connect 33 0 32 0;
#X connect 33 1 32 1;
#X connect 35 0 6 0;
#X connect 36 0 35 0;
#X connect 37 0 36 0;
#X connect 38 0 37 1;
#X restore 637 113 pd peak;
#N canvas -8 -8 1366 685 peak 0;
#X obj 112 70 unpack 0 0 0 0, f 18;
#X obj 54 231 osc~;
#X obj 54 255 *~, f 7;
#X obj 54 207 line~;
#X obj 112 41 route 0;
#X obj 112 12 inlet;
#X obj 44 517 outlet~;
#X obj 158 12 inlet;
#X obj 54 130 f;
#X obj 135 164 f;
#X obj 12 51 r \$0-pull;
#X obj 135 236 line~;
#X obj 54 284 *~;
#X obj 300 169 tabread \$0-gains;
#X obj 300 145 f;
#X obj 12 80 t b b;
#X obj 135 188 pack f f;
#X msg 135 212 \$1 \$2;
#X obj 54 154 pack f f;
#X msg 54 183 \$1 \$2;
#X obj 188 164 r \$0-lerp-gain;
#X obj 107 130 r \$0-lerp-pitch;
#X obj 300 193 pack f f;
#X msg 300 217 \$1 \$2;
#X obj 300 241 line~;
#X obj 300 265 clip~ 0 1;
#X obj 44 339 f;
#X obj 44 363 tabread \$0-delay-tab;
#X obj 44 387 clip 0 1;
#X obj 44 421 *;
#X obj 109 387 r \$0-delay-max;
#X obj 54 308 delwrite~ \$0-del10 5000;
#X obj 252 51 r \$0-transp;
#X obj 112 99 expr pow(2 \, ($f2/12))*$f1;
#X obj 252 75 t b f;
#X obj 44 493 delread4~ \$0-del10;
#X obj 44 469 line~;
#X obj 44 445 pack f f;
#X obj 97 421 r \$0-lerp-delay;
#X connect 0 0 33 0;
#X connect 0 1 9 1;
#X connect 1 0 2 0;
#X connect 2 0 12 0;
#X connect 3 0 1 0;
#X connect 4 0 0 0;
#X connect 5 0 4 0;
#X connect 7 0 4 1;
#X connect 7 0 14 1;
#X connect 7 0 26 1;
#X connect 8 0 18 0;
#X connect 9 0 16 0;
#X connect 10 0 15 0;
#X connect 11 0 2 1;
#X connect 12 0 31 0;
#X connect 13 0 22 0;
#X connect 14 0 13 0;
#X connect 15 0 9 0;
#X connect 15 1 14 0;
#X connect 15 1 8 0;
#X connect 15 1 26 0;
#X connect 16 0 17 0;
#X connect 17 0 11 0;
#X connect 18 0 19 0;
#X connect 19 0 3 0;
#X connect 20 0 16 1;
#X connect 20 0 22 1;
#X connect 21 0 18 1;
#X connect 22 0 23 0;
#X connect 23 0 24 0;
#X connect 24 0 25 0;
#X connect 25 0 12 1;
#X connect 26 0 27 0;
#X connect 27 0 28 0;
#X connect 28 0 29 1;
#X connect 29 0 37 0;
#X connect 30 0 29 0;
#X connect 32 0 34 0;
#X connect 33 0 8 1;
#X connect 34 0 33 0;
#X connect 34 1 33 1;
#X connect 35 0 6 0;
#X connect 36 0 35 0;
#X connect 37 0 36 0;
#X connect 38 0 37 1;
#X restore 700 113 pd peak;
#N canvas -8 -8 1366 685 peak 0;
#X obj 112 70 unpack 0 0 0 0, f 18;
#X obj 54 231 osc~;
#X obj 54 255 *~, f 7;
#X obj 54 207 line~;
#X obj 112 41 route 0;
#X obj 112 12 inlet;
#X obj 44 517 outlet~;
#X obj 158 12 inlet;
#X obj 54 130 f;
#X obj 135 164 f;
#X obj 12 51 r \$0-pull;
#X obj 135 236 line~;
#X obj 54 284 *~;
#X obj 300 169 tabread \$0-gains;
#X obj 300 145 f;
#X obj 12 80 t b b;
#X obj 135 188 pack f f;
#X msg 135 212 \$1 \$2;
#X obj 54 154 pack f f;
#X msg 54 183 \$1 \$2;
#X obj 188 164 r \$0-lerp-gain;
#X obj 107 130 r \$0-lerp-pitch;
#X obj 300 193 pack f f;
#X msg 300 217 \$1 \$2;
#X obj 300 241 line~;
#X obj 300 265 clip~ 0 1;
#X obj 44 339 f;
#X obj 44 363 tabread \$0-delay-tab;
#X obj 44 387 clip 0 1;
#X obj 44 421 *;
#X obj 109 387 r \$0-delay-max;
#X obj 54 308 delwrite~ \$0-del11 5000;
#X obj 252 51 r \$0-transp;
#X obj 112 99 expr pow(2 \, ($f2/12))*$f1;
#X obj 252 75 t b f;
#X obj 44 493 delread4~ \$0-del11;
#X obj 44 469 line~;
#X obj 44 445 pack f f;
#X obj 97 421 r \$0-lerp-delay;
#X connect 0 0 33 0;
#X connect 0 1 9 1;
#X connect 1 0 2 0;
#X connect 2 0 12 0;
#X connect 3 0 1 0;
#X connect 4 0 0 0;
#X connect 5 0 4 0;
#X connect 7 0 4 1;
#X connect 7 0 14 1;
#X connect 7 0 26 1;
#X connect 8 0 18 0;
#X connect 9 0 16 0;
#X connect 10 0 15 0;
#X connect 11 0 2 1;
#X connect 12 0 31 0;
#X connect 13 0 22 0;
#X connect 14 0 13 0;
#X connect 15 0 9 0;
#X connect 15 1 14 0;
#X connect 15 1 8 0;
#X connect 15 1 26 0;
#X connect 16 0 17 0;
#X connect 17 0 11 0;
#X connect 18 0 19 0;
#X connect 19 0 3 0;
#X connect 20 0 16 1;
#X connect 20 0 22 1;
#X connect 21 0 18 1;
#X connect 22 0 23 0;
#X connect 23 0 24 0;
#X connect 24 0 25 0;
#X connect 25 0 12 1;
#X connect 26 0 27 0;
#X connect 27 0 28 0;
#X connect 28 0 29 1;
#X connect 29 0 37 0;
#X connect 30 0 29 0;
#X connect 32 0 34 0;
#X connect 33 0 8 1;
#X connect 34 0 33 0;
#X connect 34 1 33 1;
#X connect 35 0 6 0;
#X connect 36 0 35 0;
#X connect 37 0 36 0;
#X connect 38 0 37 1;
#X restore 763 113 pd peak;
#N canvas -8 -8 1366 685 peak 0;
#X obj 112 70 unpack 0 0 0 0, f 18;
#X obj 54 231 osc~;
#X obj 54 255 *~, f 7;
#X obj 54 207 line~;
#X obj 112 41 route 0;
#X obj 112 12 inlet;
#X obj 44 517 outlet~;
#X obj 158 12 inlet;
#X obj 54 130 f;
#X obj 135 164 f;
#X obj 12 51 r \$0-pull;
#X obj 135 236 line~;
#X obj 54 284 *~;
#X obj 300 169 tabread \$0-gains;
#X obj 300 145 f;
#X obj 12 80 t b b;
#X obj 135 188 pack f f;
#X msg 135 212 \$1 \$2;
#X obj 54 154 pack f f;
#X msg 54 183 \$1 \$2;
#X obj 188 164 r \$0-lerp-gain;
#X obj 107 130 r \$0-lerp-pitch;
#X obj 300 193 pack f f;
#X msg 300 217 \$1 \$2;
#X obj 300 241 line~;
#X obj 300 265 clip~ 0 1;
#X obj 44 339 f;
#X obj 44 363 tabread \$0-delay-tab;
#X obj 44 387 clip 0 1;
#X obj 44 421 *;
#X obj 109 387 r \$0-delay-max;
#X obj 54 308 delwrite~ \$0-del12 5000;
#X obj 252 51 r \$0-transp;
#X obj 112 99 expr pow(2 \, ($f2/12))*$f1;
#X obj 252 75 t b f;
#X obj 44 493 delread4~ \$0-del12;
#X obj 44 469 line~;
#X obj 44 445 pack f f;
#X obj 97 421 r \$0-lerp-delay;
#X connect 0 0 33 0;
#X connect 0 1 9 1;
#X connect 1 0 2 0;
#X connect 2 0 12 0;
#X connect 3 0 1 0;
#X connect 4 0 0 0;
#X connect 5 0 4 0;
#X connect 7 0 4 1;
#X connect 7 0 14 1;
#X connect 7 0 26 1;
#X connect 8 0 18 0;
#X connect 9 0 16 0;
#X connect 10 0 15 0;
#X connect 11 0 2 1;
#X connect 12 0 31 0;
#X connect 13 0 22 0;
#X connect 14 0 13 0;
#X connect 15 0 9 0;
#X connect 15 1 14 0;
#X connect 15 1 8 0;
#X connect 15 1 26 0;
#X connect 16 0 17 0;
#X connect 17 0 11 0;
#X connect 18 0 19 0;
#X connect 19 0 3 0;
#X connect 20 0 16 1;
#X connect 20 0 22 1;
#X connect 21 0 18 1;
#X connect 22 0 23 0;
#X connect 23 0 24 0;
#X connect 24 0 25 0;
#X connect 25 0 12 1;
#X connect 26 0 27 0;
#X connect 27 0 28 0;
#X connect 28 0 29 1;
#X connect 29 0 37 0;
#X connect 30 0 29 0;
#X connect 32 0 34 0;
#X connect 33 0 8 1;
#X connect 34 0 33 0;
#X connect 34 1 33 1;
#X connect 35 0 6 0;
#X connect 36 0 35 0;
#X connect 37 0 36 0;
#X connect 38 0 37 1;
#X restore 826 113 pd peak;
#N canvas -8 -8 1366 685 peak 0;
#X obj 112 70 unpack 0 0 0 0, f 18;
#X obj 54 231 osc~;
#X obj 54 255 *~, f 7;
#X obj 54 207 line~;
#X obj 112 41 route 0;
#X obj 112 12 inlet;
#X obj 44 517 outlet~;
#X obj 158 12 inlet;
#X obj 54 130 f;
#X obj 135 164 f;
#X obj 12 51 r \$0-pull;
#X obj 135 236 line~;
#X obj 54 284 *~;
#X obj 300 169 tabread \$0-gains;
#X obj 300 145 f;
#X obj 12 80 t b b;
#X obj 135 188 pack f f;
#X msg 135 212 \$1 \$2;
#X obj 54 154 pack f f;
#X msg 54 183 \$1 \$2;
#X obj 188 164 r \$0-lerp-gain;
#X obj 107 130 r \$0-lerp-pitch;
#X obj 300 193 pack f f;
#X msg 300 217 \$1 \$2;
#X obj 300 241 line~;
#X obj 300 265 clip~ 0 1;
#X obj 44 339 f;
#X obj 44 363 tabread \$0-delay-tab;
#X obj 44 387 clip 0 1;
#X obj 44 421 *;
#X obj 109 387 r \$0-delay-max;
#X obj 54 308 delwrite~ \$0-del13 5000;
#X obj 252 51 r \$0-transp;
#X obj 112 99 expr pow(2 \, ($f2/12))*$f1;
#X obj 252 75 t b f;
#X obj 44 493 delread4~ \$0-del13;
#X obj 44 469 line~;
#X obj 44 445 pack f f;
#X obj 97 421 r \$0-lerp-delay;
#X connect 0 0 33 0;
#X connect 0 1 9 1;
#X connect 1 0 2 0;
#X connect 2 0 12 0;
#X connect 3 0 1 0;
#X connect 4 0 0 0;
#X connect 5 0 4 0;
#X connect 7 0 4 1;
#X connect 7 0 14 1;
#X connect 7 0 26 1;
#X connect 8 0 18 0;
#X connect 9 0 16 0;
#X connect 10 0 15 0;
#X connect 11 0 2 1;
#X connect 12 0 31 0;
#X connect 13 0 22 0;
#X connect 14 0 13 0;
#X connect 15 0 9 0;
#X connect 15 1 14 0;
#X connect 15 1 8 0;
#X connect 15 1 26 0;
#X connect 16 0 17 0;
#X connect 17 0 11 0;
#X connect 18 0 19 0;
#X connect 19 0 3 0;
#X connect 20 0 16 1;
#X connect 20 0 22 1;
#X connect 21 0 18 1;
#X connect 22 0 23 0;
#X connect 23 0 24 0;
#X connect 24 0 25 0;
#X connect 25 0 12 1;
#X connect 26 0 27 0;
#X connect 27 0 28 0;
#X connect 28 0 29 1;
#X connect 29 0 37 0;
#X connect 30 0 29 0;
#X connect 32 0 34 0;
#X connect 33 0 8 1;
#X connect 34 0 33 0;
#X connect 34 1 33 1;
#X connect 35 0 6 0;
#X connect 36 0 35 0;
#X connect 37 0 36 0;
#X connect 38 0 37 1;
#X restore 889 113 pd peak;
#N canvas -8 -8 1366 685 peak 0;
#X obj 112 70 unpack 0 0 0 0, f 18;
#X obj 54 231 osc~;
#X obj 54 255 *~, f 7;
#X obj 54 207 line~;
#X obj 112 41 route 0;
#X obj 112 12 inlet;
#X obj 44 517 outlet~;
#X obj 158 12 inlet;
#X obj 54 130 f;
#X obj 135 164 f;
#X obj 12 51 r \$0-pull;
#X obj 135 236 line~;
#X obj 54 284 *~;
#X obj 300 169 tabread \$0-gains;
#X obj 300 145 f;
#X obj 12 80 t b b;
#X obj 135 188 pack f f;
#X msg 135 212 \$1 \$2;
#X obj 54 154 pack f f;
#X msg 54 183 \$1 \$2;
#X obj 188 164 r \$0-lerp-gain;
#X obj 107 130 r \$0-lerp-pitch;
#X obj 300 193 pack f f;
#X msg 300 217 \$1 \$2;
#X obj 300 241 line~;
#X obj 300 265 clip~ 0 1;
#X obj 44 339 f;
#X obj 44 363 tabread \$0-delay-tab;
#X obj 44 387 clip 0 1;
#X obj 44 421 *;
#X obj 109 387 r \$0-delay-max;
#X obj 54 308 delwrite~ \$0-del14 5000;
#X obj 252 51 r \$0-transp;
#X obj 112 99 expr pow(2 \, ($f2/12))*$f1;
#X obj 252 75 t b f;
#X obj 44 493 delread4~ \$0-del14;
#X obj 44 469 line~;
#X obj 44 445 pack f f;
#X obj 97 421 r \$0-lerp-delay;
#X connect 0 0 33 0;
#X connect 0 1 9 1;
#X connect 1 0 2 0;
#X connect 2 0 12 0;
#X connect 3 0 1 0;
#X connect 4 0 0 0;
#X connect 5 0 4 0;
#X connect 7 0 4 1;
#X connect 7 0 14 1;
#X connect 7 0 26 1;
#X connect 8 0 18 0;
#X connect 9 0 16 0;
#X connect 10 0 15 0;
#X connect 11 0 2 1;
#X connect 12 0 31 0;
#X connect 13 0 22 0;
#X connect 14 0 13 0;
#X connect 15 0 9 0;
#X connect 15 1 14 0;
#X connect 15 1 8 0;
#X connect 15 1 26 0;
#X connect 16 0 17 0;
#X connect 17 0 11 0;
#X connect 18 0 19 0;
#X connect 19 0 3 0;
#X connect 20 0 16 1;
#X connect 20 0 22 1;
#X connect 21 0 18 1;
#X connect 22 0 23 0;
#X connect 23 0 24 0;
#X connect 24 0 25 0;
#X connect 25 0 12 1;
#X connect 26 0 27 0;
#X connect 27 0 28 0;
#X connect 28 0 29 1;
#X connect 29 0 37 0;
#X connect 30 0 29 0;
#X connect 32 0 34 0;
#X connect 33 0 8 1;
#X connect 34 0 33 0;
#X connect 34 1 33 1;
#X connect 35 0 6 0;
#X connect 36 0 35 0;
#X connect 37 0 36 0;
#X connect 38 0 37 1;
#X restore 952 113 pd peak;
#N canvas -8 -8 1366 685 peak 0;
#X obj 112 70 unpack 0 0 0 0, f 18;
#X obj 54 231 osc~;
#X obj 54 255 *~, f 7;
#X obj 54 207 line~;
#X obj 112 41 route 0;
#X obj 112 12 inlet;
#X obj 44 517 outlet~;
#X obj 158 12 inlet;
#X obj 54 130 f;
#X obj 135 164 f;
#X obj 12 51 r \$0-pull;
#X obj 135 236 line~;
#X obj 54 284 *~;
#X obj 300 169 tabread \$0-gains;
#X obj 300 145 f;
#X obj 12 80 t b b;
#X obj 135 188 pack f f;
#X msg 135 212 \$1 \$2;
#X obj 54 154 pack f f;
#X msg 54 183 \$1 \$2;
#X obj 188 164 r \$0-lerp-gain;
#X obj 107 130 r \$0-lerp-pitch;
#X obj 300 193 pack f f;
#X msg 300 217 \$1 \$2;
#X obj 300 241 line~;
#X obj 300 265 clip~ 0 1;
#X obj 44 339 f;
#X obj 44 363 tabread \$0-delay-tab;
#X obj 44 387 clip 0 1;
#X obj 44 421 *;
#X obj 109 387 r \$0-delay-max;
#X obj 54 308 delwrite~ \$0-del15 5000;
#X obj 252 51 r \$0-transp;
#X obj 112 99 expr pow(2 \, ($f2/12))*$f1;
#X obj 252 75 t b f;
#X obj 44 493 delread4~ \$0-del15;
#X obj 44 469 line~;
#X obj 44 445 pack f f;
#X obj 97 421 r \$0-lerp-delay;
#X connect 0 0 33 0;
#X connect 0 1 9 1;
#X connect 1 0 2 0;
#X connect 2 0 12 0;
#X connect 3 0 1 0;
#X connect 4 0 0 0;
#X connect 5 0 4 0;
#X connect 7 0 4 1;
#X connect 7 0 14 1;
#X connect 7 0 26 1;
#X connect 8 0 18 0;
#X connect 9 0 16 0;
#X connect 10 0 15 0;
#X connect 11 0 2 1;
#X connect 12 0 31 0;
#X connect 13 0 22 0;
#X connect 14 0 13 0;
#X connect 15 0 9 0;
#X connect 15 1 14 0;
#X connect 15 1 8 0;
#X connect 15 1 26 0;
#X connect 16 0 17 0;
#X connect 17 0 11 0;
#X connect 18 0 19 0;
#X connect 19 0 3 0;
#X connect 20 0 16 1;
#X connect 20 0 22 1;
#X connect 21 0 18 1;
#X connect 22 0 23 0;
#X connect 23 0 24 0;
#X connect 24 0 25 0;
#X connect 25 0 12 1;
#X connect 26 0 27 0;
#X connect 27 0 28 0;
#X connect 28 0 29 1;
#X connect 29 0 37 0;
#X connect 30 0 29 0;
#X connect 32 0 34 0;
#X connect 33 0 8 1;
#X connect 34 0 33 0;
#X connect 34 1 33 1;
#X connect 35 0 6 0;
#X connect 36 0 35 0;
#X connect 37 0 36 0;
#X connect 38 0 37 1;
#X restore 1015 113 pd peak;
#X msg 620 84 8;
#X msg 683 84 9;
#X msg 746 84 10;
#X msg 809 84 11;
#X msg 872 84 12;
#X msg 935 84 13;
#X msg 998 84 14;
#X msg 1061 84 15;
#X obj 444 35 loadbang;
#X connect 0 0 3 0;
#X connect 1 0 0 1;
#X connect 2 0 0 0;
#X connect 2 0 4 0;
#X connect 2 0 25 0;
#X connect 2 0 24 0;
#X connect 2 0 23 0;
#X connect 2 0 22 0;
#X connect 2 0 21 0;
#X connect 2 0 20 0;
#X connect 2 0 19 0;
#X connect 2 0 18 0;
#X connect 2 0 13 0;
#X connect 2 0 12 0;
#X connect 2 0 11 0;
#X connect 2 0 10 0;
#X connect 2 0 7 0;
#X connect 2 0 6 0;
#X connect 4 0 3 0;
#X connect 5 0 4 1;
#X connect 6 0 3 0;
#X connect 7 0 3 0;
#X connect 8 0 6 1;
#X connect 9 0 7 1;
#X connect 10 0 3 0;
#X connect 11 0 3 0;
#X connect 12 0 3 0;
#X connect 13 0 3 0;
#X connect 14 0 10 1;
#X connect 15 0 11 1;
#X connect 16 0 12 1;
#X connect 17 0 13 1;
#X connect 18 0 3 0;
#X connect 19 0 3 0;
#X connect 20 0 3 0;
#X connect 21 0 3 0;
#X connect 22 0 3 0;
#X connect 23 0 3 0;
#X connect 24 0 3 0;
#X connect 25 0 3 0;
#X connect 26 0 18 1;
#X connect 27 0 19 1;
#X connect 28 0 20 1;
#X connect 29 0 21 1;
#X connect 30 0 22 1;
#X connect 31 0 23 1;
#X connect 32 0 24 1;
#X connect 33 0 25 1;
#X connect 34 0 1 0;
#X connect 34 0 5 0;
#X connect 34 0 8 0;
#X connect 34 0 9 0;
#X connect 34 0 15 0;
#X connect 34 0 14 0;
#X connect 34 0 16 0;
#X connect 34 0 17 0;
#X connect 34 0 26 0;
#X connect 34 0 27 0;
#X connect 34 0 28 0;
#X connect 34 0 29 0;
#X connect 34 0 30 0;
#X connect 34 0 31 0;
#X connect 34 0 32 0;
#X connect 34 0 33 0;
#X restore 417 252 pd peaks;
#X msg 417 199 npts \$1;
#X obj 417 175 expr pow(2 \, $f1);
#X obj 417 228 sigmund~ -npeak 16 peaks;
#X obj 417 151 + 6;
#X obj 851 147 until;
#X msg 851 123 16;
#X obj 851 195 f;
#X obj 896 195 + 1;
#X obj 851 219 t f f;
#X obj 851 99 t b b, f 6;
#X msg 890 171 0;
#X obj 851 315 tabwrite \$0-gains;
#X obj 851 243 t b f, f 17;
#X obj 851 267 random 100;
#X obj 851 291 * 0.01;
#X obj 101 101 cnv 15 195 145 empty \$0-text empty 20 12 0 14 #fcfcfc #000000 0;
#X obj 417 87 r \$0-res;
#X obj 106 106 bng 10 250 50 0 \$0-pull \$0-pull-r empty 17 7 0 10 #fcfcfc #000000 #000000;
#X obj 106 221 bng 10 250 50 0 \$0-random-gain-tab \$0-random-gain-tab-r random 15 4 0 10 #fcfcfc #000000 #000000;
#X obj 361 199 inlet~;
#X obj 417 276 outlet~;
#X obj 598 32 inlet;
#N canvas 914 35 449 708 route-inlet-messages 0;
#X obj 12 31 inlet;
#X obj 196 519 r \$0-error;
#X obj 196 543 bng 15 250 50 0 empty empty empty 17 7 0 10 #fcfcfc #000000 #000000;
#X obj 464 215 s \$0-error;
#N canvas 676 0 681 676 state 0;
#X obj 66 30 inlet;
#X obj 66 59 t b b;
#X msg 98 88 set;
#X obj 66 156 s \$0-state;
#N canvas 683 195 669 337 global 0;
#X obj 54 60 f;
#X obj 54 7 inlet;
#X obj 54 284 outlet;
#X obj 72 36 r \$0-res;
#X obj 87 83 r \$0-lerp-gain;
#X obj 121 107 r \$0-lerp-pitch;
#X obj 268 131 r \$0-gains-path;
#X obj 299 83 r \$0-delay-tab-path;
#X obj 235 107 r \$0-transp;
#X obj 193 83 r \$0-delay-max;
#X obj 154 131 r \$0-lerp-delay;
#X obj 54 170 pack f f f f f f s s, f 34;
#X msg 54 199 add2 res \$1 \, addcomma \, add2 lerp gain \$2 \, addcomma \, add2 lerp pitch \$3 \, addcomma \, add2 lerp delay \$4 \, addcomma \, add2 delay \$5 \, addcomma \, add2 transp \$6 \, addcomma \, add2 load gain \$7 \, addcomma \, add2 load delay \$8;
#X connect 0 0 11 0;
#X connect 1 0 0 0;
#X connect 3 0 0 1;
#X connect 4 0 11 1;
#X connect 5 0 11 2;
#X connect 6 0 11 6;
#X connect 7 0 11 7;
#X connect 8 0 11 5;
#X connect 9 0 11 4;
#X connect 10 0 11 3;
#X connect 11 0 12 0;
#X connect 12 0 2 0;
#X restore 66 117 pd global;
#X connect 0 0 1 0;
#X connect 1 0 4 0;
#X connect 1 1 2 0;
#X connect 2 0 3 0;
#X connect 4 0 3 0;
#X restore 407 185 pd state;
#N canvas 1027 35 336 708 lerp 0;
#X obj 57 26 inlet;
#X obj 250 246 s \$0-error;
#X obj 57 56 route gain pitch delay, f 28;
#X msg 67 86 set \$1;
#X obj 67 111 s \$0-lerp-gain-r;
#X obj 57 136 s \$0-lerp-gain;
#X msg 131 166 set \$1;
#X obj 131 191 s \$0-lerp-pitch-r;
#X obj 121 216 s \$0-lerp-pitch;
#X msg 195 86 set \$1;
#X obj 195 111 s \$0-lerp-delay-r;
#X obj 185 136 s \$0-lerp-delay;
#X connect 0 0 2 0;
#X connect 2 0 3 0;
#X connect 2 0 5 0;
#X connect 2 1 6 0;
#X connect 2 1 8 0;
#X connect 2 2 9 0;
#X connect 2 2 11 0;
#X connect 2 3 1 0;
#X connect 3 0 4 0;
#X connect 6 0 7 0;
#X connect 9 0 10 0;
#X restore 125 101 pd lerp;
#N canvas 1027 35 336 708 random 0;
#X obj 65 64 inlet;
#X obj 65 93 route gain delay;
#X obj 174 213 s \$0-error;
#X obj 65 123 s \$0-random-gain-tab-r;
#X obj 119 153 s \$0-random-delay-tab-r;
#X connect 0 0 1 0;
#X connect 1 0 3 0;
#X connect 1 1 4 0;
#X connect 1 2 2 0;
#X restore 294 101 pd random;
#N canvas 1027 35 336 708 load 0;
#X obj 61 49 inlet;
#X obj 61 109 s \$0-gains-path-r;
#X obj 61 79 route gain delay;
#X obj 115 139 s \$0-delay-tab-path-r;
#X obj 170 169 s \$0-error;
#X connect 0 0 2 0;
#X connect 2 0 1 0;
#X connect 2 1 3 0;
#X connect 2 2 4 0;
#X restore 351 131 pd load;
#X obj 12 71 route bang res lerp delay transp random load state, f 65;
#X msg 78 181 set \$1;
#X obj 78 206 s \$0-res-r;
#X obj 68 231 s \$0-res;
#X msg 191 101 set \$1;
#X obj 191 126 s \$0-delay-max-r;
#X obj 181 151 s \$0-delay-max;
#X msg 248 181 set \$1;
#X obj 248 206 s \$0-transp-r;
#X obj 238 231 s \$0-transp;
#X msg 196 563 se recibió un mensaje desconocido;
#X obj 196 592 print pullme~;
#X obj 12 101 s \$0-pull-r;
#X connect 0 0 8 0;
#X connect 1 0 2 0;
#X connect 2 0 18 0;
#X connect 8 0 20 0;
#X connect 8 1 9 0;
#X connect 8 1 11 0;
#X connect 8 2 5 0;
#X connect 8 3 12 0;
#X connect 8 3 14 0;
#X connect 8 4 15 0;
#X connect 8 4 17 0;
#X connect 8 5 6 0;
#X connect 8 6 7 0;
#X connect 8 7 4 0;
#X connect 8 8 3 0;
#X connect 9 0 10 0;
#X connect 12 0 13 0;
#X connect 15 0 16 0;
#X connect 18 0 19 0;
#X restore 598 61 pd route-inlet-messages;
#X obj 599 276 outlet;
#X obj 599 252 r \$0-state;
#X obj 179 221 bng 10 250 50 0 \$0-save-gain-tab empty sv 1 17 0 10 #fcfcfc #000000 #000000;
#X obj 163 221 bng 10 250 50 0 \$0-load-gain-tab empty ld -1 17 0 10 #fcfcfc #000000 #000000;
#N canvas 3 35 1360 708 save-load 0;
#X obj 468 319 soundfiler;
#X obj 468 223 openpanel;
#X msg 379 262 symbol \$1;
#X obj 349 223 symbol;
#X obj 542 247 f \$0;
#X obj 542 223 loadbang;
#X obj 468 271 list append;
#X obj 139 372 writesf~;
#X msg 171 343 start;
#X msg 255 343 stop;
#X obj 139 271 t b b;
#X obj 139 199 savepanel;
#X obj 139 223 t b a;
#X msg 76 343 open \$1;
#X obj 139 247 delay 5;
#X obj 139 295 tabplay~ \$0-gains;
#X msg 468 295 read \$1 \$2-gains;
#X obj 255 319 delay 1;
#X obj 349 286 s \$0-gains-path;
#X obj 268 175 r \$0-gains-path-r;
#X obj 1018 319 soundfiler;
#X obj 1018 223 openpanel;
#X msg 936 262 symbol \$1;
#X obj 906 223 symbol;
#X obj 1092 247 f \$0;
#X obj 1092 223 loadbang;
#X obj 1018 271 list append;
#X obj 689 372 writesf~;
#X msg 721 343 start;
#X msg 798 343 stop;
#X obj 689 271 t b b;
#X obj 689 199 savepanel;
#X obj 689 223 t b a;
#X msg 626 343 open \$1;
#X obj 689 247 delay 5;
#X obj 798 319 delay 1;
#X obj 689 175 r \$0-save-delay-tab;
#X obj 825 175 r \$0-delay-tab-path-r;
#X obj 906 286 s \$0-delay-tab-path;
#X obj 689 295 tabplay~ \$0-delay-tab;
#X msg 1018 295 read \$1 \$2-delay-tab;
#X obj 1018 199 r \$0-load-delay-tab;
#X obj 268 199 route symbol;
#X obj 825 199 route symbol;
#X obj 468 199 r \$0-load-gain-tab;
#X obj 139 175 r \$0-save-gain-tab;
#X connect 1 0 2 0;
#X connect 1 0 6 0;
#X connect 2 0 18 0;
#X connect 3 0 6 0;
#X connect 3 0 18 0;
#X connect 4 0 6 1;
#X connect 5 0 4 0;
#X connect 6 0 16 0;
#X connect 8 0 7 0;
#X connect 9 0 7 0;
#X connect 10 0 15 0;
#X connect 10 1 8 0;
#X connect 11 0 12 0;
#X connect 12 0 14 0;
#X connect 12 1 13 0;
#X connect 12 1 2 0;
#X connect 13 0 7 0;
#X connect 14 0 10 0;
#X connect 15 0 7 0;
#X connect 15 1 17 0;
#X connect 16 0 0 0;
#X connect 17 0 9 0;
#X connect 19 0 42 0;
#X connect 21 0 22 0;
#X connect 21 0 26 0;
#X connect 22 0 38 0;
#X connect 23 0 26 0;
#X connect 23 0 38 0;
#X connect 24 0 26 1;
#X connect 25 0 24 0;
#X connect 26 0 40 0;
#X connect 28 0 27 0;
#X connect 29 0 27 0;
#X connect 30 0 39 0;
#X connect 30 1 28 0;
#X connect 31 0 32 0;
#X connect 32 0 34 0;
#X connect 32 1 33 0;
#X connect 32 1 22 0;
#X connect 33 0 27 0;
#X connect 34 0 30 0;
#X connect 35 0 29 0;
#X connect 36 0 31 0;
#X connect 37 0 43 0;
#X connect 39 0 27 0;
#X connect 39 1 35 0;
#X connect 40 0 20 0;
#X connect 41 0 21 0;
#X connect 42 1 3 0;
#X connect 43 1 23 0;
#X connect 44 0 1 0;
#X connect 45 0 11 0;
#X restore 453 45 pd save-load;
#N canvas 0 50 450 250 (subpatch) 0;
#X array \$0-delay-tab 16 float 2;
#X coords 0 1 16 0 90 50 1 0 0;
#X restore 201 166 graph;
#X obj 202 167 cnv 15 88 48 empty \$0-text empty 20 12 0 14 #fcfcfc #000000 0;
#N canvas 0 50 450 250 (subpatch) 0;
#X array \$0-gains 16 float 3;
#A 0 1 1 1 1 1 1 1 1 1 1 1 1 1 1 1 1;
#X coords 0 1 16 0 90 50 1 0 0;
#X restore 106 166 graph;
#X obj 107 167 cnv 15 88 48 empty \$0-text empty 20 12 0 14 #fcfcfc #000000 0;
#X obj 201 221 bng 10 250 50 0 \$0-random-delay-tab \$0-random-delay-tab-r random 15 4 0 10 #fcfcfc #000000 #000000;
#X obj 274 221 bng 10 250 50 0 \$0-save-delay-tab empty sv 1 17 0 10 #fcfcfc #000000 #000000;
#X obj 258 221 bng 10 250 50 0 \$0-load-delay-tab empty ld -1 17 0 10 #fcfcfc #000000 #000000;
#X obj 1005 147 until;
#X msg 1005 123 16;
#X obj 1005 195 f;
#X obj 1050 195 + 1;
#X obj 1005 219 t f f;
#X obj 1005 99 t b b, f 6;
#X msg 1044 171 0;
#X obj 1005 243 t b f, f 21;
#X obj 1005 267 random 100;
#X obj 1005 291 * 0.01;
#X obj 1005 315 tabwrite \$0-delay-tab;
#X obj 252 126 nbx 1 15 1 7 0 0 \$0-res \$0-res-r res 23 8 0 10 #000000 #fcfcfc #000000 0 256;
#X obj 147 124 cnv 15 20 10 empty \$0-text lerp 0 5 0 10 #fcfcfc #000000 0;
#X obj 106 126 nbx 3 15 0 1e+37 0 0 \$0-lerp-gain \$0-lerp-gain-r gain 41 12 0 10 #000000 #fcfcfc #000000 0 256;
#X obj 217 124 cnv 15 20 10 empty \$0-text lerp 0 5 0 10 #fcfcfc #000000 0;
#X obj 176 126 nbx 3 15 0 1e+37 0 0 \$0-lerp-pitch \$0-lerp-pitch-r pitch 41 12 0 10 #000000 #fcfcfc #000000 0 256;
#X obj 106 150 cnv 14 70 14 empty \$0-text empty 20 12 0 14 #fcfcfc #000000 0;
#X obj 106 146 nbx 3 15 -1e+37 1e+37 0 0 \$0-transp \$0-transp-r transp. 41 8 0 10 #000000 #fcfcfc #000000 0 256;
#X obj 216 104 cnv 15 20 10 empty \$0-text lerp 0 5 0 10 #fcfcfc #000000 0;
#X obj 176 106 nbx 3 15 0 1e+37 0 0 \$0-lerp-delay \$0-lerp-delay-r del 41 12 0 10 #000000 #fcfcfc #000000 0 256;
#X obj 1005 74 r \$0-random-delay-tab;
#X obj 851 74 r \$0-random-gain-tab;
#N canvas -8 -8 1366 685 help 0;
#X obj 38 150 cnv 15 560 389 empty empty empty 20 12 0 14 #c4c4fc #404040 0;
#X obj 38 71 cnv 15 134 39 empty empty empty 20 12 0 14 #c4c4fc #404040 0;
#X obj 48 81 sig~;
#X text 35 47 INLET 0:;
#X obj 658 71 cnv 15 134 39 empty empty empty 20 12 0 14 #c4fcfc #404040 0;
#X obj 668 81 sig~;
#X text 655 47 OUTLET 0:;
#X text 35 126 INLET 1:;
#X msg 48 199 res \$1;
#X msg 48 506 lerp N \$1;
#X msg 48 298 random delay \$1;
#X msg 48 374 random gain \$1;
#X msg 48 228 transp \$1;
#X msg 48 261 delay \$1;
#X msg 48 431 load gain \$1;
#X msg 48 341 load delay \$1;
#X obj 48 166 bang;
#X text 88 81 canal mono;
#X text 708 81 canal mono;
#X obj 659 150 cnv 15 499 105 empty empty empty 20 12 0 14 #c4fcfc #404040 0;
#X msg 669 166 set foo;
#X text 656 126 OUTLET 2:;
#X text 730 159 donde foo representa una lista de todos los parámetros correctamente formateados para ser enviados de vuelta a la abstracción \, en otras palabras \, conectar esta salida a un mensaje y cuando la abstracción reciba el mensaje [state(] \, se guardará el estado actual de la abstracción (tener en cuenta que el mensaje se vaciará antes de escribir en él);
#X text 88 159 reconstruye instantáneamente el espectro de la señal entrante mediante 16 sinusoides;
#X text 100 199 resolución del análisis espectral (1-7);
#X text 122 228 transposición de las sinusoides (semitonos);
#X text 116 254 determina el valor máximo del delay \, el cual se obtendrá al leer el valor 1 de la tabla de delay (0-5000 ms);
#X text 164 294 llena la tabla de delay con valores random entre 0 y 1 (cada ínidce se corresponde con cada una de las 16 sinusoides);
#X text 151 334 ruta a la tabla de delay (tener en cuenta que si se carga un sample personalizado sólo los primeros 16 samples se usarán);
#X text 157 370 llena la tabla de ganancia con valores random entre 0 y 1 (cada ínidce se corresponde con cada una de las 16 sinusoides);
#X text 144 424 ruta a la tabla de ganancia (tener en cuenta que si se carga un sample personalizado sólo los primeros 16 samples se usarán);
#X text 45 478 ***donde N representa gain \, pitch o delay***;
#X text 122 499 tiempo de interpolación entre valores anteriores y actuales del parámetro N para cada sinusoide;
#X connect 8 0 12 0;
#X connect 10 0 15 0;
#X connect 11 0 14 0;
#X connect 12 0 13 0;
#X connect 13 0 10 0;
#X connect 15 0 11 0;
#X connect 16 0 8 0;
#X restore 1267 638 pd help;
#X obj 201 150 cnv 14 85 14 empty \$0-text empty 20 12 0 14 #fcfcfc #000000 0;
#X obj 201 146 nbx 4 15 1 5000 0 0 \$0-delay-max \$0-delay-max-r delay 49 8 0 10 #000000 #fcfcfc #000000 0 256;
#X text 941 575 abstracción basada en el objeto sigmund~ para la reconstrucción de un espectro frecuencial utilizando 16 sinusoides \; \; dylan martin;
#X obj 417 112 expr round($f1);
#X obj 851 354 loadbang;
#X obj 851 378 delay 100;
#X obj 851 426 tabread \$0-gains;
#X msg 851 402 0;
#X obj 851 450 tabwrite \$0-gains 0;
#X obj 1005 354 loadbang;
#X obj 1005 378 delay 100;
#X msg 1005 402 0;
#X obj 1005 426 tabread \$0-delay-tab;
#X obj 1005 450 tabwrite \$0-delay-tab 0;
#X connect 0 0 21 0;
#X connect 1 0 3 0;
#X connect 2 0 1 0;
#X connect 3 0 0 0;
#X connect 4 0 2 0;
#X connect 5 0 7 0;
#X connect 6 0 5 0;
#X connect 7 0 9 0;
#X connect 8 0 7 1;
#X connect 9 0 13 0;
#X connect 9 1 8 0;
#X connect 10 0 6 0;
#X connect 10 1 11 0;
#X connect 11 0 7 1;
#X connect 13 0 14 0;
#X connect 13 1 12 1;
#X connect 14 0 15 0;
#X connect 15 0 12 0;
#X connect 17 0 62 0;
#X connect 20 0 3 0;
#X connect 22 0 23 0;
#X connect 25 0 24 0;
#X connect 36 0 38 0;
#X connect 37 0 36 0;
#X connect 38 0 40 0;
#X connect 39 0 38 1;
#X connect 40 0 43 0;
#X connect 40 1 39 0;
#X connect 41 0 37 0;
#X connect 41 1 42 0;
#X connect 42 0 38 1;
#X connect 43 0 44 0;
#X connect 43 1 46 1;
#X connect 44 0 45 0;
#X connect 45 0 46 0;
#X connect 56 0 41 0;
#X connect 57 0 10 0;
#X connect 62 0 4 0;
#X connect 63 0 64 0;
#X connect 64 0 66 0;
#X connect 65 0 67 0;
#X connect 66 0 65 0;
#X connect 68 0 69 0;
#X connect 69 0 70 0;
#X connect 70 0 71 0;
#X connect 71 0 72 0;
#X coords 0 -1 1 1 197 153 2 100 97;
