#N canvas 685 37 1366 685 12;
#X obj 12 114 cnv 15 560 389 empty empty empty 20 12 0 14 #c4c4fc #404040 0;
#X obj 12 35 cnv 15 134 39 empty empty empty 20 12 0 14 #c4c4fc #404040 0;
#X obj 22 45 sig~;
#X text 9 11 INLET 0:;
#X obj 632 35 cnv 15 134 39 empty empty empty 20 12 0 14 #c4fcfc #404040 0;
#X obj 642 45 sig~;
#X text 629 11 OUTLET 0:;
#X text 9 90 INLET 1:;
#X msg 22 163 res \$1;
#X msg 22 470 lerp N \$1;
#X msg 22 262 random delay \$1;
#X msg 22 338 random gain \$1;
#X msg 22 192 transp \$1;
#X msg 22 225 delay \$1;
#X msg 22 395 load gain \$1;
#X msg 22 305 load delay \$1;
#X obj 22 130 bang;
#X text 62 45 canal mono;
#X text 682 45 canal mono;
#X obj 633 114 cnv 15 499 105 empty empty empty 20 12 0 14 #c4fcfc #404040 0;
#X msg 643 130 set foo;
#X text 630 90 OUTLET 2:;
#X text 704 123 donde foo representa una lista de todos los parámetros correctamente formateados para ser enviados de vuelta a la abstracción \, en otras palabras \, conectar esta salida a un mensaje y cuando la abstracción reciba el mensaje [state(] \, se guardará el estado actual de la abstracción (tener en cuenta que el mensaje se vaciará antes de escribir en él);
#X text 62 123 reconstruye instantáneamente el espectro de la señal entrante mediante 16 sinusoides;
#X text 74 163 resolución del análisis espectral (1-7);
#X text 96 192 transposición de las sinusoides (semitonos);
#X text 90 218 determina el valor máximo del delay \, el cual se obtendrá al leer el valor 1 de la tabla de delay (0-5000 ms);
#X text 138 258 llena la tabla de delay con valores random entre 0 y 1 (cada ínidce se corresponde con cada una de las 16 sinusoides);
#X text 125 298 ruta a la tabla de delay (tener en cuenta que si se carga un sample personalizado sólo los primeros 16 samples se usarán);
#X text 131 334 llena la tabla de ganancia con valores random entre 0 y 1 (cada ínidce se corresponde con cada una de las 16 sinusoides);
#X text 118 388 ruta a la tabla de ganancia (tener en cuenta que si se carga un sample personalizado sólo los primeros 16 samples se usarán);
#X text 19 442 ***donde N representa gain \, pitch o delay***;
#X text 96 463 tiempo de interpolación entre valores anteriores y actuales del parámetro N para cada sinusoide;
#X obj 12 609 loadbang;
#X msg 12 633 0;
#X obj 12 657 switch~;
#X connect 8 0 12 0;
#X connect 10 0 15 0;
#X connect 11 0 14 0;
#X connect 12 0 13 0;
#X connect 13 0 10 0;
#X connect 15 0 11 0;
#X connect 16 0 8 0;
#X connect 33 0 34 0;
#X connect 34 0 35 0;
#X coords 0 685 1 684 197 153 0;
